<svg width="1188" height="303" viewBox="0 0 1188 303" fill="none" xmlns="http://www.w3.org/2000/svg">
<path d="M315.285 28.2051L291.75 93H282.131L309.23 21.9062H315.432L315.285 28.2051ZM335.012 93L311.428 28.2051L311.281 21.9062H317.482L344.68 93H335.012ZM333.791 66.6816V74.3965H293.85V66.6816H333.791ZM392.746 93H380.871L380.949 86.8672H392.746C396.809 86.8672 400.194 86.0208 402.902 84.3281C405.611 82.6094 407.642 80.2135 408.996 77.1406C410.376 74.0417 411.066 70.4219 411.066 66.2812V62.8047C411.066 59.5495 410.676 56.6589 409.895 54.1328C409.113 51.5807 407.967 49.4323 406.457 47.6875C404.947 45.9167 403.098 44.5755 400.91 43.6641C398.749 42.7526 396.262 42.2969 393.449 42.2969H380.637V36.125H393.449C397.173 36.125 400.572 36.75 403.645 38C406.717 39.224 409.361 41.0078 411.574 43.3516C413.814 45.6693 415.533 48.4818 416.73 51.7891C417.928 55.0703 418.527 58.7682 418.527 62.8828V66.2812C418.527 70.3958 417.928 74.1068 416.73 77.4141C415.533 80.6953 413.801 83.4948 411.535 85.8125C409.296 88.1302 406.587 89.9141 403.41 91.1641C400.259 92.388 396.704 93 392.746 93ZM384.895 36.125V93H377.355V36.125H384.895ZM446.301 93.7812C443.358 93.7812 440.689 93.2865 438.293 92.2969C435.923 91.2812 433.879 89.862 432.16 88.0391C430.467 86.2161 429.165 84.0547 428.254 81.5547C427.342 79.0547 426.887 76.3203 426.887 73.3516V71.7109C426.887 68.2734 427.395 65.2135 428.41 62.5312C429.426 59.8229 430.806 57.5312 432.551 55.6562C434.296 53.7812 436.275 52.362 438.488 51.3984C440.702 50.4349 442.993 49.9531 445.363 49.9531C448.384 49.9531 450.988 50.474 453.176 51.5156C455.389 52.5573 457.199 54.0156 458.605 55.8906C460.012 57.7396 461.053 59.9271 461.73 62.4531C462.408 64.9531 462.746 67.6875 462.746 70.6562V73.8984H431.184V68H455.52V67.4531C455.415 65.5781 455.025 63.7552 454.348 61.9844C453.697 60.2135 452.655 58.7552 451.223 57.6094C449.79 56.4635 447.837 55.8906 445.363 55.8906C443.723 55.8906 442.212 56.2422 440.832 56.9453C439.452 57.6224 438.267 58.638 437.277 59.9922C436.288 61.3464 435.52 63 434.973 64.9531C434.426 66.9062 434.152 69.1589 434.152 71.7109V73.3516C434.152 75.3568 434.426 77.2448 434.973 79.0156C435.546 80.7604 436.366 82.2969 437.434 83.625C438.527 84.9531 439.842 85.9948 441.379 86.75C442.941 87.5052 444.712 87.8828 446.691 87.8828C449.243 87.8828 451.405 87.362 453.176 86.3203C454.947 85.2786 456.496 83.8854 457.824 82.1406L462.199 85.6172C461.288 86.9974 460.129 88.3125 458.723 89.5625C457.316 90.8125 455.585 91.8281 453.527 92.6094C451.496 93.3906 449.087 93.7812 446.301 93.7812ZM483.488 86.4766L495.051 50.7344H502.434L487.238 93H482.395L483.488 86.4766ZM473.84 50.7344L485.754 86.6719L486.574 93H481.73L466.418 50.7344H473.84ZM526.379 93.7812C523.436 93.7812 520.767 93.2865 518.371 92.2969C516.001 91.2812 513.957 89.862 512.238 88.0391C510.546 86.2161 509.243 84.0547 508.332 81.5547C507.421 79.0547 506.965 76.3203 506.965 73.3516V71.7109C506.965 68.2734 507.473 65.2135 508.488 62.5312C509.504 59.8229 510.884 57.5312 512.629 55.6562C514.374 53.7812 516.353 52.362 518.566 51.3984C520.78 50.4349 523.072 49.9531 525.441 49.9531C528.462 49.9531 531.066 50.474 533.254 51.5156C535.467 52.5573 537.277 54.0156 538.684 55.8906C540.09 57.7396 541.132 59.9271 541.809 62.4531C542.486 64.9531 542.824 67.6875 542.824 70.6562V73.8984H511.262V68H535.598V67.4531C535.493 65.5781 535.103 63.7552 534.426 61.9844C533.775 60.2135 532.733 58.7552 531.301 57.6094C529.868 56.4635 527.915 55.8906 525.441 55.8906C523.801 55.8906 522.29 56.2422 520.91 56.9453C519.53 57.6224 518.345 58.638 517.355 59.9922C516.366 61.3464 515.598 63 515.051 64.9531C514.504 66.9062 514.23 69.1589 514.23 71.7109V73.3516C514.23 75.3568 514.504 77.2448 515.051 79.0156C515.624 80.7604 516.444 82.2969 517.512 83.625C518.605 84.9531 519.921 85.9948 521.457 86.75C523.02 87.5052 524.79 87.8828 526.77 87.8828C529.322 87.8828 531.483 87.362 533.254 86.3203C535.025 85.2786 536.574 83.8854 537.902 82.1406L542.277 85.6172C541.366 86.9974 540.207 88.3125 538.801 89.5625C537.395 90.8125 535.663 91.8281 533.605 92.6094C531.574 93.3906 529.165 93.7812 526.379 93.7812ZM559.113 33V93H551.848V33H559.113ZM568.801 72.3359V71.4375C568.801 68.3906 569.243 65.5651 570.129 62.9609C571.014 60.3307 572.29 58.0521 573.957 56.125C575.624 54.1719 577.642 52.6615 580.012 51.5938C582.382 50.5 585.038 49.9531 587.98 49.9531C590.949 49.9531 593.618 50.5 595.988 51.5938C598.384 52.6615 600.415 54.1719 602.082 56.125C603.775 58.0521 605.064 60.3307 605.949 62.9609C606.835 65.5651 607.277 68.3906 607.277 71.4375V72.3359C607.277 75.3828 606.835 78.2083 605.949 80.8125C605.064 83.4167 603.775 85.6953 602.082 87.6484C600.415 89.5755 598.397 91.0859 596.027 92.1797C593.684 93.2474 591.027 93.7812 588.059 93.7812C585.09 93.7812 582.421 93.2474 580.051 92.1797C577.681 91.0859 575.65 89.5755 573.957 87.6484C572.29 85.6953 571.014 83.4167 570.129 80.8125C569.243 78.2083 568.801 75.3828 568.801 72.3359ZM576.027 71.4375V72.3359C576.027 74.4453 576.275 76.4375 576.77 78.3125C577.264 80.1615 578.007 81.8021 578.996 83.2344C580.012 84.6667 581.275 85.7995 582.785 86.6328C584.296 87.4401 586.053 87.8438 588.059 87.8438C590.038 87.8438 591.77 87.4401 593.254 86.6328C594.764 85.7995 596.014 84.6667 597.004 83.2344C597.993 81.8021 598.736 80.1615 599.23 78.3125C599.751 76.4375 600.012 74.4453 600.012 72.3359V71.4375C600.012 69.3542 599.751 67.388 599.23 65.5391C598.736 63.6641 597.98 62.0104 596.965 60.5781C595.975 59.1198 594.725 57.974 593.215 57.1406C591.73 56.3073 589.986 55.8906 587.98 55.8906C586.001 55.8906 584.257 56.3073 582.746 57.1406C581.262 57.974 580.012 59.1198 578.996 60.5781C578.007 62.0104 577.264 63.6641 576.77 65.5391C576.275 67.388 576.027 69.3542 576.027 71.4375ZM623.566 58.8594V109.25H616.301V50.7344H622.941L623.566 58.8594ZM652.043 71.5156V72.3359C652.043 75.4089 651.678 78.2604 650.949 80.8906C650.22 83.4948 649.152 85.7604 647.746 87.6875C646.366 89.6146 644.66 91.112 642.629 92.1797C640.598 93.2474 638.267 93.7812 635.637 93.7812C632.954 93.7812 630.585 93.3385 628.527 92.4531C626.47 91.5677 624.725 90.2786 623.293 88.5859C621.861 86.8932 620.715 84.862 619.855 82.4922C619.022 80.1224 618.449 77.4531 618.137 74.4844V70.1094C618.449 66.9844 619.035 64.1849 619.895 61.7109C620.754 59.237 621.887 57.1276 623.293 55.3828C624.725 53.612 626.457 52.2708 628.488 51.3594C630.52 50.4219 632.863 49.9531 635.52 49.9531C638.176 49.9531 640.533 50.474 642.59 51.5156C644.647 52.5312 646.379 53.9896 647.785 55.8906C649.191 57.7917 650.246 60.0703 650.949 62.7266C651.678 65.3568 652.043 68.2865 652.043 71.5156ZM644.777 72.3359V71.5156C644.777 69.4062 644.556 67.4271 644.113 65.5781C643.671 63.7031 642.98 62.0625 642.043 60.6562C641.132 59.224 639.96 58.1042 638.527 57.2969C637.095 56.4635 635.389 56.0469 633.41 56.0469C631.587 56.0469 629.999 56.3594 628.645 56.9844C627.316 57.6094 626.184 58.4557 625.246 59.5234C624.309 60.5651 623.54 61.763 622.941 63.1172C622.368 64.4453 621.939 65.8255 621.652 67.2578V77.375C622.173 79.1979 622.902 80.9167 623.84 82.5312C624.777 84.1198 626.027 85.4089 627.59 86.3984C629.152 87.362 631.118 87.8438 633.488 87.8438C635.441 87.8438 637.121 87.4401 638.527 86.6328C639.96 85.7995 641.132 84.6667 642.043 83.2344C642.98 81.8021 643.671 80.1615 644.113 78.3125C644.556 76.4375 644.777 74.4453 644.777 72.3359ZM678.801 93.7812C675.858 93.7812 673.189 93.2865 670.793 92.2969C668.423 91.2812 666.379 89.862 664.66 88.0391C662.967 86.2161 661.665 84.0547 660.754 81.5547C659.842 79.0547 659.387 76.3203 659.387 73.3516V71.7109C659.387 68.2734 659.895 65.2135 660.91 62.5312C661.926 59.8229 663.306 57.5312 665.051 55.6562C666.796 53.7812 668.775 52.362 670.988 51.3984C673.202 50.4349 675.493 49.9531 677.863 49.9531C680.884 49.9531 683.488 50.474 685.676 51.5156C687.889 52.5573 689.699 54.0156 691.105 55.8906C692.512 57.7396 693.553 59.9271 694.23 62.4531C694.908 64.9531 695.246 67.6875 695.246 70.6562V73.8984H663.684V68H688.02V67.4531C687.915 65.5781 687.525 63.7552 686.848 61.9844C686.197 60.2135 685.155 58.7552 683.723 57.6094C682.29 56.4635 680.337 55.8906 677.863 55.8906C676.223 55.8906 674.712 56.2422 673.332 56.9453C671.952 57.6224 670.767 58.638 669.777 59.9922C668.788 61.3464 668.02 63 667.473 64.9531C666.926 66.9062 666.652 69.1589 666.652 71.7109V73.3516C666.652 75.3568 666.926 77.2448 667.473 79.0156C668.046 80.7604 668.866 82.2969 669.934 83.625C671.027 84.9531 672.342 85.9948 673.879 86.75C675.441 87.5052 677.212 87.8828 679.191 87.8828C681.743 87.8828 683.905 87.362 685.676 86.3203C687.447 85.2786 688.996 83.8854 690.324 82.1406L694.699 85.6172C693.788 86.9974 692.629 88.3125 691.223 89.5625C689.816 90.8125 688.085 91.8281 686.027 92.6094C683.996 93.3906 681.587 93.7812 678.801 93.7812ZM710.91 57.375V93H703.684V50.7344H710.715L710.91 57.375ZM724.113 50.5L724.074 57.2188C723.475 57.0885 722.902 57.0104 722.355 56.9844C721.835 56.9323 721.236 56.9062 720.559 56.9062C718.892 56.9062 717.421 57.1667 716.145 57.6875C714.868 58.2083 713.788 58.9375 712.902 59.875C712.017 60.8125 711.314 61.9323 710.793 63.2344C710.298 64.5104 709.973 65.9167 709.816 67.4531L707.785 68.625C707.785 66.0729 708.033 63.6771 708.527 61.4375C709.048 59.1979 709.842 57.2188 710.91 55.5C711.978 53.7552 713.332 52.401 714.973 51.4375C716.639 50.4479 718.618 49.9531 720.91 49.9531C721.431 49.9531 722.03 50.0182 722.707 50.1484C723.384 50.2526 723.853 50.3698 724.113 50.5Z" fill="white"/>
<path d="M230.812 215.523L242.948 172.859H248.827L245.426 189.446L232.366 234H226.529L230.812 215.523ZM218.257 172.859L227.915 214.684L230.812 234H225.018L210.194 172.859H218.257ZM264.532 214.642L273.98 172.859H282.085L267.304 234H261.509L264.532 214.642ZM249.709 172.859L261.509 215.523L265.792 234H259.955L247.357 189.446L243.914 172.859H249.709ZM297.664 169.5V234H289.896V169.5H297.664ZM295.816 209.561L292.583 209.435C292.611 206.327 293.073 203.458 293.969 200.826C294.865 198.167 296.124 195.857 297.748 193.897C299.372 191.938 301.303 190.426 303.543 189.362C305.811 188.271 308.316 187.725 311.06 187.725C313.299 187.725 315.315 188.033 317.106 188.648C318.898 189.236 320.424 190.188 321.684 191.504C322.971 192.82 323.951 194.527 324.623 196.627C325.295 198.699 325.631 201.232 325.631 204.228V234H317.82V204.144C317.82 201.764 317.47 199.86 316.771 198.433C316.071 196.977 315.049 195.927 313.705 195.283C312.361 194.611 310.71 194.275 308.75 194.275C306.818 194.275 305.055 194.681 303.459 195.493C301.891 196.305 300.534 197.425 299.386 198.853C298.266 200.28 297.384 201.918 296.74 203.766C296.124 205.585 295.816 207.517 295.816 209.561ZM335.205 211.786V210.82C335.205 207.545 335.681 204.507 336.633 201.708C337.585 198.881 338.956 196.431 340.748 194.359C342.54 192.26 344.709 190.636 347.257 189.488C349.804 188.312 352.66 187.725 355.823 187.725C359.015 187.725 361.884 188.312 364.432 189.488C367.007 190.636 369.191 192.26 370.982 194.359C372.802 196.431 374.188 198.881 375.14 201.708C376.091 204.507 376.567 207.545 376.567 210.82V211.786C376.567 215.062 376.091 218.099 375.14 220.898C374.188 223.698 372.802 226.147 370.982 228.247C369.191 230.319 367.021 231.942 364.474 233.118C361.954 234.266 359.099 234.84 355.907 234.84C352.716 234.84 349.846 234.266 347.299 233.118C344.751 231.942 342.568 230.319 340.748 228.247C338.956 226.147 337.585 223.698 336.633 220.898C335.681 218.099 335.205 215.062 335.205 211.786ZM342.974 210.82V211.786C342.974 214.054 343.24 216.195 343.771 218.211C344.303 220.199 345.101 221.962 346.165 223.502C347.257 225.042 348.615 226.259 350.238 227.155C351.862 228.023 353.752 228.457 355.907 228.457C358.035 228.457 359.896 228.023 361.492 227.155C363.116 226.259 364.46 225.042 365.523 223.502C366.587 221.962 367.385 220.199 367.917 218.211C368.477 216.195 368.757 214.054 368.757 211.786V210.82C368.757 208.581 368.477 206.467 367.917 204.479C367.385 202.464 366.573 200.686 365.481 199.146C364.418 197.579 363.074 196.347 361.45 195.451C359.854 194.555 357.979 194.107 355.823 194.107C353.696 194.107 351.82 194.555 350.196 195.451C348.601 196.347 347.257 197.579 346.165 199.146C345.101 200.686 344.303 202.464 343.771 204.479C343.24 206.467 342.974 208.581 342.974 210.82ZM439.657 234H419.173L419.308 223.421H439.657C446.665 223.421 452.505 221.961 457.177 219.041C461.849 216.076 465.353 211.943 467.688 206.643C470.069 201.297 471.26 195.053 471.26 187.91V181.913C471.26 176.298 470.586 171.312 469.238 166.954C467.891 162.552 465.914 158.846 463.309 155.836C460.703 152.781 457.514 150.468 453.74 148.896C450.012 147.323 445.722 146.537 440.87 146.537H418.769V135.891H440.87C447.294 135.891 453.156 136.969 458.457 139.125C463.758 141.236 468.317 144.313 472.136 148.356C475.999 152.354 478.964 157.206 481.03 162.911C483.097 168.571 484.13 174.95 484.13 182.048V187.91C484.13 195.008 483.097 201.409 481.03 207.114C478.964 212.774 475.977 217.604 472.068 221.602C468.205 225.6 463.533 228.677 458.053 230.833C452.617 232.944 446.485 234 439.657 234ZM426.113 135.891V234H413.108V135.891H426.113ZM532.039 235.348C526.963 235.348 522.358 234.494 518.226 232.787C514.138 231.035 510.611 228.587 507.646 225.442C504.727 222.298 502.48 218.569 500.908 214.257C499.336 209.944 498.55 205.228 498.55 200.106V197.276C498.55 191.347 499.426 186.068 501.178 181.441C502.93 176.77 505.311 172.816 508.32 169.582C511.33 166.348 514.744 163.899 518.562 162.237C522.381 160.575 526.334 159.744 530.422 159.744C535.633 159.744 540.125 160.643 543.898 162.439C547.717 164.236 550.839 166.752 553.265 169.986C555.69 173.176 557.487 176.949 558.655 181.307C559.823 185.619 560.407 190.336 560.407 195.457V201.05H505.962V190.875H547.941V189.932C547.762 186.697 547.088 183.553 545.92 180.498C544.797 177.443 543 174.928 540.529 172.951C538.059 170.975 534.689 169.986 530.422 169.986C527.592 169.986 524.986 170.593 522.605 171.806C520.225 172.974 518.181 174.726 516.474 177.062C514.767 179.397 513.441 182.25 512.498 185.619C511.555 188.988 511.083 192.874 511.083 197.276V200.106C511.083 203.565 511.555 206.822 512.498 209.877C513.486 212.887 514.901 215.537 516.743 217.828C518.63 220.119 520.898 221.916 523.549 223.219C526.244 224.521 529.299 225.173 532.713 225.173C537.115 225.173 540.844 224.274 543.898 222.478C546.953 220.681 549.626 218.277 551.917 215.268L559.464 221.265C557.892 223.646 555.893 225.914 553.467 228.07C551.041 230.227 548.054 231.979 544.505 233.326C541.001 234.674 536.846 235.348 532.039 235.348ZM617.413 214.661C617.413 212.864 617.009 211.202 616.2 209.675C615.437 208.103 613.842 206.688 611.416 205.43C609.035 204.127 605.441 203.004 600.635 202.061C596.592 201.207 592.931 200.196 589.651 199.028C586.417 197.86 583.654 196.445 581.363 194.783C579.117 193.121 577.388 191.167 576.175 188.921C574.962 186.675 574.355 184.047 574.355 181.037C574.355 178.162 574.984 175.444 576.242 172.884C577.545 170.323 579.364 168.055 581.7 166.078C584.081 164.102 586.934 162.552 590.258 161.429C593.582 160.306 597.288 159.744 601.376 159.744C607.216 159.744 612.202 160.777 616.335 162.844C620.468 164.91 623.635 167.673 625.836 171.132C628.037 174.546 629.138 178.342 629.138 182.52H616.672C616.672 180.498 616.065 178.544 614.853 176.657C613.685 174.726 611.955 173.131 609.664 171.873C607.418 170.615 604.655 169.986 601.376 169.986C597.917 169.986 595.109 170.525 592.953 171.604C590.842 172.637 589.292 173.962 588.304 175.579C587.36 177.196 586.889 178.903 586.889 180.7C586.889 182.048 587.113 183.261 587.562 184.339C588.057 185.372 588.91 186.338 590.123 187.236C591.336 188.09 593.043 188.898 595.244 189.662C597.445 190.426 600.253 191.189 603.667 191.953C609.642 193.301 614.561 194.918 618.424 196.805C622.287 198.691 625.162 201.005 627.049 203.745C628.936 206.485 629.879 209.81 629.879 213.718C629.879 216.907 629.205 219.827 627.857 222.478C626.555 225.128 624.646 227.419 622.13 229.351C619.659 231.237 616.694 232.72 613.235 233.798C609.821 234.831 605.98 235.348 601.713 235.348C595.289 235.348 589.854 234.202 585.406 231.911C580.959 229.62 577.59 226.655 575.299 223.017C573.008 219.378 571.862 215.537 571.862 211.494H584.396C584.575 214.908 585.563 217.626 587.36 219.647C589.157 221.624 591.358 223.039 593.964 223.893C596.569 224.701 599.152 225.105 601.713 225.105C605.127 225.105 607.979 224.656 610.271 223.758C612.606 222.859 614.381 221.624 615.594 220.052C616.807 218.479 617.413 216.683 617.413 214.661ZM659.797 161.092V234H647.264V161.092H659.797ZM646.32 141.753C646.32 139.731 646.927 138.024 648.14 136.632C649.397 135.239 651.239 134.543 653.665 134.543C656.046 134.543 657.865 135.239 659.123 136.632C660.426 138.024 661.077 139.731 661.077 141.753C661.077 143.685 660.426 145.347 659.123 146.739C657.865 148.087 656.046 148.761 653.665 148.761C651.239 148.761 649.397 148.087 648.14 146.739C646.927 145.347 646.32 143.685 646.32 141.753ZM727.045 161.092H738.365V232.45C738.365 238.874 737.062 244.354 734.457 248.892C731.852 253.429 728.213 256.865 723.541 259.201C718.914 261.582 713.568 262.772 707.504 262.772C704.988 262.772 702.023 262.368 698.609 261.56C695.24 260.796 691.916 259.471 688.637 257.584C685.402 255.742 682.685 253.249 680.483 250.104L687.02 242.692C690.074 246.376 693.264 248.937 696.588 250.374C699.957 251.812 703.281 252.53 706.561 252.53C710.514 252.53 713.928 251.789 716.803 250.307C719.678 248.824 721.901 246.623 723.474 243.703C725.091 240.828 725.899 237.279 725.899 233.057V177.129L727.045 161.092ZM676.845 198.354V196.939C676.845 191.369 677.496 186.315 678.799 181.778C680.146 177.196 682.056 173.266 684.526 169.986C687.042 166.707 690.074 164.191 693.623 162.439C697.172 160.643 701.17 159.744 705.617 159.744C710.199 159.744 714.197 160.553 717.611 162.17C721.07 163.742 723.99 166.056 726.371 169.11C728.797 172.12 730.706 175.759 732.099 180.026C733.491 184.294 734.457 189.123 734.996 194.514V200.713C734.502 206.059 733.536 210.865 732.099 215.133C730.706 219.4 728.797 223.039 726.371 226.049C723.99 229.059 721.07 231.372 717.611 232.989C714.152 234.562 710.109 235.348 705.482 235.348C701.125 235.348 697.172 234.427 693.623 232.585C690.119 230.743 687.109 228.16 684.594 224.836C682.078 221.512 680.146 217.604 678.799 213.111C677.496 208.574 676.845 203.655 676.845 198.354ZM689.311 196.939V198.354C689.311 201.993 689.67 205.407 690.389 208.597C691.152 211.786 692.298 214.594 693.825 217.02C695.397 219.445 697.396 221.354 699.822 222.747C702.248 224.095 705.146 224.769 708.515 224.769C712.647 224.769 716.062 223.893 718.757 222.141C721.452 220.389 723.586 218.075 725.158 215.2C726.775 212.325 728.033 209.203 728.932 205.834V189.595C728.438 187.124 727.674 184.743 726.641 182.452C725.652 180.116 724.35 178.05 722.732 176.253C721.16 174.411 719.206 172.951 716.87 171.873C714.534 170.795 711.794 170.256 708.649 170.256C705.235 170.256 702.293 170.975 699.822 172.412C697.396 173.805 695.397 175.736 693.825 178.207C692.298 180.633 691.152 183.463 690.389 186.697C689.67 189.887 689.311 193.301 689.311 196.939ZM769.766 176.657V234H757.3V161.092H769.092L769.766 176.657ZM766.801 194.783L761.612 194.581C761.657 189.595 762.398 184.99 763.836 180.768C765.273 176.5 767.295 172.794 769.9 169.649C772.506 166.505 775.605 164.079 779.199 162.372C782.838 160.62 786.858 159.744 791.261 159.744C794.854 159.744 798.089 160.238 800.964 161.227C803.839 162.17 806.287 163.697 808.309 165.809C810.375 167.92 811.947 170.66 813.025 174.029C814.104 177.354 814.643 181.419 814.643 186.226V234H802.109V186.091C802.109 182.272 801.548 179.218 800.425 176.927C799.302 174.591 797.662 172.906 795.506 171.873C793.35 170.795 790.699 170.256 787.555 170.256C784.455 170.256 781.625 170.907 779.064 172.21C776.549 173.513 774.37 175.31 772.528 177.601C770.731 179.892 769.316 182.52 768.283 185.484C767.295 188.404 766.801 191.504 766.801 194.783ZM876.028 214.661C876.028 212.864 875.624 211.202 874.815 209.675C874.052 208.103 872.457 206.688 870.031 205.43C867.65 204.127 864.057 203.004 859.25 202.061C855.207 201.207 851.546 200.196 848.267 199.028C845.032 197.86 842.27 196.445 839.979 194.783C837.732 193.121 836.003 191.167 834.79 188.921C833.577 186.675 832.971 184.047 832.971 181.037C832.971 178.162 833.6 175.444 834.857 172.884C836.16 170.323 837.979 168.055 840.315 166.078C842.696 164.102 845.549 162.552 848.873 161.429C852.197 160.306 855.903 159.744 859.991 159.744C865.831 159.744 870.817 160.777 874.95 162.844C879.083 164.91 882.25 167.673 884.451 171.132C886.652 174.546 887.753 178.342 887.753 182.52H875.287C875.287 180.498 874.681 178.544 873.468 176.657C872.3 174.726 870.57 173.131 868.279 171.873C866.033 170.615 863.271 169.986 859.991 169.986C856.532 169.986 853.725 170.525 851.568 171.604C849.457 172.637 847.907 173.962 846.919 175.579C845.976 177.196 845.504 178.903 845.504 180.7C845.504 182.048 845.729 183.261 846.178 184.339C846.672 185.372 847.525 186.338 848.738 187.236C849.951 188.09 851.658 188.898 853.859 189.662C856.061 190.426 858.868 191.189 862.282 191.953C868.257 193.301 873.176 194.918 877.039 196.805C880.902 198.691 883.777 201.005 885.664 203.745C887.551 206.485 888.494 209.81 888.494 213.718C888.494 216.907 887.82 219.827 886.473 222.478C885.17 225.128 883.261 227.419 880.745 229.351C878.274 231.237 875.31 232.72 871.851 233.798C868.437 234.831 864.596 235.348 860.328 235.348C853.904 235.348 848.469 234.202 844.021 231.911C839.574 229.62 836.205 226.655 833.914 223.017C831.623 219.378 830.478 215.537 830.478 211.494H843.011C843.19 214.908 844.179 217.626 845.976 219.647C847.772 221.624 849.974 223.039 852.579 223.893C855.185 224.701 857.768 225.105 860.328 225.105C863.742 225.105 866.595 224.656 868.886 223.758C871.222 222.859 872.996 221.624 874.209 220.052C875.422 218.479 876.028 216.683 876.028 214.661Z" fill="white"/>
<path d="M817.457 258.586V292H813.097V258.586H817.457ZM828.197 258.586V262.212H802.379V258.586H828.197ZM829.092 279.86V279.332C829.092 277.542 829.352 275.882 829.873 274.352C830.393 272.807 831.142 271.468 832.122 270.336C833.101 269.188 834.286 268.301 835.679 267.674C837.071 267.031 838.632 266.71 840.36 266.71C842.104 266.71 843.673 267.031 845.065 267.674C846.472 268.301 847.666 269.188 848.645 270.336C849.639 271.468 850.397 272.807 850.917 274.352C851.437 275.882 851.697 277.542 851.697 279.332V279.86C851.697 281.65 851.437 283.31 850.917 284.84C850.397 286.37 849.639 287.708 848.645 288.856C847.666 289.988 846.48 290.875 845.088 291.518C843.711 292.145 842.15 292.459 840.406 292.459C838.662 292.459 837.094 292.145 835.702 291.518C834.309 290.875 833.116 289.988 832.122 288.856C831.142 287.708 830.393 286.37 829.873 284.84C829.352 283.31 829.092 281.65 829.092 279.86ZM833.338 279.332V279.86C833.338 281.099 833.483 282.27 833.774 283.371C834.065 284.457 834.501 285.421 835.082 286.263C835.679 287.104 836.421 287.77 837.308 288.259C838.195 288.734 839.228 288.971 840.406 288.971C841.569 288.971 842.586 288.734 843.458 288.259C844.346 287.77 845.08 287.104 845.662 286.263C846.243 285.421 846.679 284.457 846.97 283.371C847.276 282.27 847.429 281.099 847.429 279.86V279.332C847.429 278.108 847.276 276.953 846.97 275.867C846.679 274.765 846.235 273.794 845.639 272.952C845.057 272.095 844.323 271.422 843.436 270.933C842.563 270.443 841.538 270.198 840.36 270.198C839.198 270.198 838.173 270.443 837.285 270.933C836.413 271.422 835.679 272.095 835.082 272.952C834.501 273.794 834.065 274.765 833.774 275.867C833.483 276.953 833.338 278.108 833.338 279.332ZM855.897 279.86V279.332C855.897 277.542 856.157 275.882 856.677 274.352C857.197 272.807 857.947 271.468 858.926 270.336C859.905 269.188 861.091 268.301 862.483 267.674C863.876 267.031 865.436 266.71 867.165 266.71C868.909 266.71 870.477 267.031 871.87 267.674C873.277 268.301 874.471 269.188 875.45 270.336C876.444 271.468 877.201 272.807 877.722 274.352C878.242 275.882 878.502 277.542 878.502 279.332V279.86C878.502 281.65 878.242 283.31 877.722 284.84C877.201 286.37 876.444 287.708 875.45 288.856C874.471 289.988 873.285 290.875 871.893 291.518C870.516 292.145 868.955 292.459 867.211 292.459C865.467 292.459 863.899 292.145 862.506 291.518C861.114 290.875 859.921 289.988 858.926 288.856C857.947 287.708 857.197 286.37 856.677 284.84C856.157 283.31 855.897 281.65 855.897 279.86ZM860.143 279.332V279.86C860.143 281.099 860.288 282.27 860.579 283.371C860.869 284.457 861.305 285.421 861.887 286.263C862.483 287.104 863.225 287.77 864.113 288.259C865 288.734 866.033 288.971 867.211 288.971C868.374 288.971 869.391 288.734 870.263 288.259C871.151 287.77 871.885 287.104 872.466 286.263C873.048 285.421 873.484 284.457 873.774 283.371C874.08 282.27 874.233 281.099 874.233 279.86V279.332C874.233 278.108 874.08 276.953 873.774 275.867C873.484 274.765 873.04 273.794 872.443 272.952C871.862 272.095 871.128 271.422 870.24 270.933C869.368 270.443 868.343 270.198 867.165 270.198C866.002 270.198 864.977 270.443 864.09 270.933C863.218 271.422 862.483 272.095 861.887 272.952C861.305 273.794 860.869 274.765 860.579 275.867C860.288 276.953 860.143 278.108 860.143 279.332ZM883.895 289.751C883.895 289.032 884.117 288.428 884.561 287.938C885.02 287.433 885.677 287.181 886.534 287.181C887.391 287.181 888.041 287.433 888.485 287.938C888.944 288.428 889.173 289.032 889.173 289.751C889.173 290.455 888.944 291.051 888.485 291.541C888.041 292.031 887.391 292.275 886.534 292.275C885.677 292.275 885.02 292.031 884.561 291.541C884.117 291.051 883.895 290.455 883.895 289.751ZM896.288 289.751C896.288 289.032 896.509 288.428 896.953 287.938C897.412 287.433 898.07 287.181 898.927 287.181C899.784 287.181 900.434 287.433 900.877 287.938C901.336 288.428 901.566 289.032 901.566 289.751C901.566 290.455 901.336 291.051 900.877 291.541C900.434 292.031 899.784 292.275 898.927 292.275C898.07 292.275 897.412 292.031 896.953 291.541C896.509 291.051 896.288 290.455 896.288 289.751ZM908.68 289.751C908.68 289.032 908.902 288.428 909.346 287.938C909.805 287.433 910.463 287.181 911.319 287.181C912.176 287.181 912.826 287.433 913.27 287.938C913.729 288.428 913.958 289.032 913.958 289.751C913.958 290.455 913.729 291.051 913.27 291.541C912.826 292.031 912.176 292.275 911.319 292.275C910.463 292.275 909.805 292.031 909.346 291.541C908.902 291.051 908.68 290.455 908.68 289.751Z" fill="white"/>
</svg>
