<svg width="806" height="704" viewBox="0 0 806 704" fill="none" xmlns="http://www.w3.org/2000/svg">
<path fill-rule="evenodd" clip-rule="evenodd" d="M387.895 87.7959C428.063 69.1457 480.259 91.961 515.32 119.017C549.946 145.738 543.993 203.921 576.417 233.276C617.508 270.477 717.483 251.967 723.083 307.112C729.129 366.646 629.267 381.15 596.52 431.234C577.301 460.628 595.795 504.551 575.33 533.092C554.796 561.729 518.965 575.321 485.434 586.16C454.012 596.317 419.396 583.766 387.895 593.677C340.433 608.61 297.606 685.036 255.519 658.499C210.329 630.005 272.894 543.629 240.795 500.925C210.127 460.123 130.784 489.231 98.5445 449.659C69.8948 414.494 72.8475 357.652 89.7873 315.576C106.723 273.51 147.789 243.935 188.992 224.997C225.312 208.304 274.138 238.419 307.041 215.722C349.093 186.715 341.56 109.31 387.895 87.7959Z" fill="url(#paint0_linear_114_32)"/>
<path fill-rule="evenodd" clip-rule="evenodd" d="M642.694 554.212C653.536 552.262 664.227 541.786 674.409 545.984C684.695 550.225 683.429 566.623 691.46 574.317C699.242 581.773 715.135 579.687 719.747 589.421C724.402 599.245 710.981 610.636 713.657 621.17C716.977 634.233 741.61 641.953 736.236 654.315C730.352 667.852 707.13 659.673 693.987 666.419C686.761 670.127 684.261 679.429 677.776 684.319C671.056 689.386 663.771 694.775 655.384 695.527C646.988 696.279 639.673 687.326 631.323 688.484C618.347 690.284 608.469 705.78 595.515 703.831C584.707 702.205 579.724 688.88 573.649 679.806C567.733 670.971 564.357 660.968 560.25 651.162C555.788 640.507 543.1 629.366 548.181 618.991C554.428 606.237 577.776 611.197 585.622 599.357C592.181 589.46 577.83 573.842 584.576 564.071C590.575 555.384 604.697 558.412 615.115 556.644C624.292 555.087 633.534 555.859 642.694 554.212Z" fill="url(#paint1_linear_114_32)"/>
<path fill-rule="evenodd" clip-rule="evenodd" d="M676.128 3.58239C693.408 -5.00114 715.067 3.55889 732.748 11.2803C750.676 19.1102 773.917 28.7046 777.671 47.929C782.106 70.6375 746.617 89.1906 752.341 111.608C758.306 134.968 807.625 134.653 805.959 158.707C804.448 180.522 761.073 168.906 747.203 185.795C733.657 202.289 752.407 238.449 733.074 247.456C713.583 256.537 697.279 222.753 676.128 218.908C659.944 215.967 641.965 237.643 628.337 228.42C613.699 218.515 620.81 194.464 615.21 177.684C611.517 166.617 603.809 157.525 600.907 146.224C597.957 134.738 599.678 122.96 598.136 111.201C595.855 93.7983 578.695 73.6615 589.591 59.9136C600.473 46.1834 626.667 66.2393 641.342 56.6862C659.291 45.0024 656.951 13.1089 676.128 3.58239Z" fill="url(#paint2_linear_114_32)"/>
<path fill-rule="evenodd" clip-rule="evenodd" d="M113.904 517.894C127.908 519.111 139.971 505.502 154.017 505.707C171.054 505.957 195.758 502.215 202.982 519.197C211.209 538.539 192.063 559.374 185.371 579.42C181.593 590.736 172.349 599.917 172.012 611.966C171.561 628.092 192.896 646.086 183.168 658.157C173.119 670.628 152.642 647.613 138.493 653.561C126.105 658.769 126.657 683.276 113.904 687.275C102.391 690.886 90.3633 680.283 81.4916 671.438C73.2472 663.218 75.8311 645.075 65.9455 639.459C46.1142 628.193 9.27295 648.544 1.02051 625.725C-6.48497 604.971 29.3727 594.917 44.4123 579.917C52.3301 572.019 65.4111 569.029 68.9774 557.944C75.0699 539.006 56.4332 511.103 70.6185 498.457C82.881 487.526 98.1718 516.526 113.904 517.894Z" fill="url(#paint3_linear_114_32)"/>
<defs>
<linearGradient id="paint0_linear_114_32" x1="400.173" y1="81" x2="400.173" y2="664.049" gradientUnits="userSpaceOnUse">
<stop offset="0.0324265" stop-color="#87EFB1"/>
<stop offset="1" stop-color="#7732A2" stop-opacity="0"/>
</linearGradient>
<linearGradient id="paint1_linear_114_32" x1="642" y1="545" x2="642" y2="704" gradientUnits="userSpaceOnUse">
<stop offset="0.0324265" stop-color="#87EFB1"/>
<stop offset="1" stop-color="#7732A2" stop-opacity="0"/>
</linearGradient>
<linearGradient id="paint2_linear_114_32" x1="696" y1="0" x2="696" y2="249" gradientUnits="userSpaceOnUse">
<stop offset="0.0324265" stop-color="#87EFB1"/>
<stop offset="1" stop-color="#7732A2" stop-opacity="0"/>
</linearGradient>
<linearGradient id="paint3_linear_114_32" x1="102.5" y1="496" x2="102.5" y2="688" gradientUnits="userSpaceOnUse">
<stop offset="0.0324265" stop-color="#87EFB1"/>
<stop offset="1" stop-color="#7732A2" stop-opacity="0"/>
</linearGradient>
</defs>
</svg>
