<svg width="1460" height="1357" viewBox="0 0 1460 1357" fill="none" xmlns="http://www.w3.org/2000/svg">
<path fill-rule="evenodd" clip-rule="evenodd" d="M842.926 31.2468C919.655 0.92445 1049.98 -26.6058 1087.79 46.8139C1149.32 166.31 1008.5 319.809 1056.22 445.476C1079.78 507.507 1225.36 415.109 1250.92 476.342C1277.66 540.411 1192.57 604.051 1142.42 651.999C1102.3 690.351 994.184 667.1 993.287 722.635C992.029 800.544 1145.59 825.633 1138.36 903.216C1133.32 957.328 1008.27 852.29 977.07 896.754C920.19 977.803 987.601 1103.12 937.939 1188.8C893.008 1266.31 783.554 1403.7 719.479 1341.13C622.493 1246.42 805.846 995.322 682.464 939.322C538.039 873.771 390.32 1202.29 250.127 1128.1C140.541 1070.1 444.698 921.948 419.852 800.34C397.541 691.138 122.826 724.222 145.307 615.054C169.455 497.788 363.929 519.969 481.763 499.694C553.563 487.339 658.372 581.58 697.505 520.041C752.921 432.897 633.545 313.697 663.002 214.684C687.65 131.837 762.631 62.9783 842.926 31.2468Z" fill="url(#paint0_linear_12_2)"/>
<path d="M192.238 500.468C181.968 513.906 172.242 526.603 163.061 538.557C153.999 550.408 145.121 561.939 136.427 573.151C127.848 584.367 119.332 595.422 110.879 606.317C102.427 617.212 93.7371 628.264 84.811 639.47C76.0039 650.572 66.8346 662.097 57.3054 674.043C47.8952 685.884 37.7679 698.41 26.9234 711.616C30.7121 709.231 34.3219 707.003 37.7528 704.933C41.3 702.864 44.8391 701.066 48.3706 699.537C52.0182 698.01 55.829 696.866 59.8031 696.102C63.7804 695.231 68.2081 694.857 73.0863 694.978C78.6615 695.117 84.2226 695.743 89.7694 696.851C95.4365 697.855 101.042 698.966 106.586 700.183C112.133 701.291 117.679 702.401 123.226 703.51C128.892 704.514 134.571 705.087 140.262 705.23C144.212 705.329 148.062 704.832 151.813 703.739C155.681 702.649 159.326 701.177 162.751 699.323C166.292 697.47 169.55 695.341 172.526 692.935C175.505 690.422 178.255 687.794 180.775 685.054L186.75 689.409L150.734 740.913C135.126 738.043 119.688 735.285 104.422 732.64C89.2754 729.889 74.0096 727.243 58.6239 724.702C55.6197 724.088 52.6688 723.637 49.7714 723.347C46.877 722.953 43.9199 722.716 40.9 722.641C34.3956 722.479 28.158 723.132 22.1875 724.6C16.3363 725.963 10.6891 728.302 5.24601 731.616L0 726.148C25.8073 694.013 50.9035 662.345 75.2887 631.145C99.6771 599.837 124.134 568.154 148.661 536.095L111.203 535.159C106.789 535.049 101.155 534.907 94.3036 534.737C87.5696 534.46 80.5407 534.338 73.2169 534.371C66.0096 534.407 59.0846 534.719 52.4422 535.308C45.8029 535.789 40.3691 536.785 36.1407 538.296C33.9088 539.104 31.6126 540.125 29.2521 541.359C26.8915 542.594 24.6424 543.994 22.5048 545.558C20.3671 547.122 18.3425 548.797 16.431 550.582C14.5225 552.259 12.8464 553.942 11.4025 555.632L5.08292 551.107L41.6228 499.615L133.962 501.923C138.492 502.037 143.02 502.203 147.546 502.424C152.189 502.648 156.783 502.602 161.325 502.284C165.867 501.966 170.304 501.267 174.636 500.19C178.969 499.112 183.086 497.381 186.991 495L192.238 500.468ZM380.134 676.449C374.769 685.049 368.315 693.191 360.77 700.874C353.34 708.559 345.065 715.308 335.947 721.118C326.944 726.932 317.223 731.488 306.782 734.785C296.457 738.085 285.662 739.594 274.395 739.312C265.683 739.095 257.244 737.537 249.075 734.637C240.907 731.737 233.643 727.728 227.282 722.608C221.039 717.493 216.041 711.436 212.292 704.442C208.663 697.343 206.972 689.536 207.219 681.024C207.461 672.728 209.485 665.069 213.291 658.047C217.102 650.918 221.939 644.461 227.801 638.677C233.781 632.895 240.439 627.778 247.774 623.325C255.227 618.875 262.717 615.126 270.243 612.08C265.042 611.086 260.39 609.192 256.287 606.393C252.183 603.595 248.735 600.274 245.94 596.43C243.147 592.586 241.061 588.328 239.686 583.658C238.31 578.987 237.692 574.28 237.829 569.539C238.02 562.967 239.478 556.802 242.202 551.049C244.929 545.185 248.514 539.83 252.955 534.982C257.516 530.027 262.758 525.629 268.681 521.788C274.608 517.838 280.806 514.543 287.276 511.901C293.861 509.261 300.545 507.272 307.325 505.932C314.221 504.594 320.865 504.007 327.252 504.166C336.777 504.404 345.437 506.399 353.231 510.153C361.03 513.798 367.852 519.036 373.697 525.868L347.937 542.368C345.588 539.183 343.001 536.206 340.176 533.441C337.47 530.57 334.461 528.123 331.149 526.099C327.956 523.97 324.46 522.265 320.661 520.984C316.98 519.706 312.989 519.013 308.691 518.906C303.349 518.772 298.037 519.556 292.758 521.258C287.597 522.853 282.937 525.217 278.778 528.348C274.621 531.371 271.202 535.06 268.518 539.413C265.951 543.771 264.591 548.589 264.437 553.868C264.278 559.364 265.407 564.513 267.824 569.318C270.245 574.015 273.496 578.141 277.578 581.694C281.659 585.246 286.342 588.058 291.629 590.131C297.032 592.207 302.579 593.317 308.271 593.458C314.775 593.621 320.843 592.802 326.473 591.002L328.894 597.695C319.406 600.261 309.892 603.636 300.356 607.818C290.938 611.896 282.425 616.912 274.813 622.869C267.2 628.824 260.954 635.785 256.073 643.75C251.309 651.718 248.778 660.82 248.48 671.057C248.308 676.983 249.078 682.502 250.79 687.612C252.501 692.723 255.044 697.207 258.419 701.066C261.911 704.928 266.18 707.999 271.228 710.282C276.392 712.568 282.227 713.792 288.731 713.955C295.467 714.123 303.054 713.072 311.488 710.803C319.926 708.426 328.213 705.236 336.349 701.234C344.486 697.233 351.943 692.621 358.72 687.398C365.496 682.176 370.65 676.806 374.182 671.287L380.134 676.449ZM570.387 681.204C565.023 689.804 558.568 697.945 551.022 705.628C543.592 713.314 535.318 720.063 526.199 725.873C517.197 731.687 507.475 736.242 497.035 739.539C486.711 742.84 475.916 744.349 464.649 744.067C455.937 743.85 447.497 742.291 439.329 739.392C431.161 736.492 423.897 732.482 417.536 727.363C411.291 722.247 406.295 716.191 402.546 709.196C398.916 702.098 397.226 694.291 397.473 685.779C397.713 677.482 399.737 669.823 403.544 662.801C407.354 655.672 412.191 649.215 418.055 643.431C424.035 637.65 430.693 632.533 438.028 628.079C445.48 623.629 452.97 619.88 460.497 616.834C455.296 615.841 450.643 613.946 446.54 611.147C442.437 608.35 438.988 605.029 436.194 601.185C433.399 597.341 431.315 593.083 429.94 588.412C428.564 583.742 427.946 579.035 428.083 574.294C428.274 567.721 429.732 561.557 432.455 555.803C435.183 549.94 438.768 544.584 443.209 539.736C447.77 534.781 453.012 530.384 458.935 526.543C464.861 522.593 471.059 519.297 477.528 516.655C484.115 514.016 490.797 512.027 497.578 510.687C504.475 509.349 511.117 508.761 517.506 508.921C527.029 509.158 535.689 511.153 543.485 514.907C551.282 518.552 558.104 523.79 563.95 530.623L538.19 547.123C535.842 543.938 533.255 540.961 530.429 538.196C527.723 535.323 524.714 532.877 521.402 530.853C518.209 528.725 514.714 527.02 510.915 525.739C507.232 524.461 503.242 523.767 498.945 523.661C493.602 523.526 488.291 524.311 483.01 526.012C477.85 527.608 473.191 529.971 469.032 533.103C464.875 536.126 461.456 539.814 458.772 544.168C456.205 548.525 454.844 553.344 454.691 558.622C454.531 564.119 455.66 569.268 458.078 574.073C460.499 578.77 463.75 582.896 467.83 586.448C471.912 590.001 476.596 592.813 481.883 594.886C487.285 596.962 492.833 598.071 498.523 598.213C505.028 598.376 511.096 597.557 516.727 595.757L519.148 602.449C509.66 605.015 500.146 608.389 490.61 612.573C481.192 616.651 472.677 621.667 465.066 627.623C457.454 633.579 451.208 640.54 446.327 648.505C441.563 656.473 439.032 665.575 438.734 675.811C438.562 681.738 439.332 687.257 441.043 692.366C442.755 697.477 445.298 701.962 448.673 705.82C452.163 709.681 456.434 712.754 461.481 715.037C466.645 717.322 472.479 718.546 478.985 718.709C485.721 718.877 493.306 717.826 501.741 715.558C510.179 713.181 518.467 709.991 526.603 705.988C534.739 701.987 542.196 697.375 548.972 692.153C555.75 686.93 560.904 681.56 564.435 676.042L570.387 681.204ZM764.931 550.201L734.709 582.28C732.36 575.105 729.247 568.234 725.37 561.667C721.491 555.101 716.836 549.323 711.401 544.335C705.967 539.347 699.75 535.31 692.749 532.223C685.748 529.138 677.893 527.486 669.181 527.267C662.909 527.111 657.07 528.043 651.665 530.065C646.262 531.979 641.474 534.77 637.3 538.44C633.244 542.005 629.981 546.29 627.511 551.297C625.157 556.306 623.895 561.719 623.727 567.538C623.551 573.571 624.606 579.259 626.893 584.601C629.178 589.941 632.291 594.816 636.232 599.229C640.175 603.533 644.714 607.312 649.851 610.568C655.103 613.825 660.549 616.388 666.19 618.255C671.829 620.228 677.751 622.425 683.957 624.845C690.163 627.264 696.243 630.058 702.195 633.225C708.148 636.394 713.798 639.932 719.148 643.839C724.501 647.639 729.201 651.907 733.247 656.645C737.294 661.383 740.453 666.638 742.727 672.41C745.003 678.074 746.045 684.247 745.852 690.927C745.57 700.624 742.993 709.294 738.122 716.936C733.37 724.473 727.2 730.788 719.614 735.882C712.026 740.977 703.372 744.804 693.65 747.364C684.045 749.928 674.305 751.087 664.433 750.84C657.696 750.672 650.87 749.584 643.954 747.579C637.154 745.575 630.606 742.931 624.308 739.647C618.13 736.258 612.314 732.392 606.861 728.051C601.524 723.712 596.893 719.068 592.969 714.117L622.066 684.76C623.658 689.975 626.519 695.547 630.647 701.473C634.892 707.402 639.846 712.917 645.51 718.018C651.173 723.12 657.267 727.423 663.79 730.929C670.433 734.33 676.891 736.109 683.163 736.265C686.763 736.355 690.505 735.586 694.388 733.958C698.271 732.33 701.82 730.208 705.035 727.592C708.367 724.872 711.127 721.922 713.312 718.742C715.496 715.562 716.634 712.409 716.725 709.284C716.862 704.544 715.946 700.046 713.978 695.792C712.012 691.43 709.343 687.319 705.967 683.461C702.708 679.605 698.859 676.058 694.42 672.82C690.1 669.478 685.537 666.506 680.73 663.906C676.044 661.201 671.288 658.871 666.463 656.918C661.757 654.859 657.387 653.24 653.353 652.061C645.405 649.598 637.658 646.169 630.114 641.776C622.686 637.385 616.097 632.153 610.346 626.078C604.594 620.004 600.024 613.258 596.636 605.841C593.251 598.316 591.681 590.351 591.926 581.947C592.135 574.728 593.552 567.916 596.18 561.511C598.807 555.108 602.349 549.212 606.806 543.824C611.262 538.436 616.46 533.605 622.395 529.333C628.334 524.953 634.716 521.338 641.54 518.49C648.368 515.534 655.464 513.338 662.828 511.904C670.195 510.364 677.595 509.686 685.029 509.872C701.291 510.279 716.291 514.05 730.032 521.187C743.776 528.215 755.409 537.887 764.931 550.201ZM964.583 747.665L928.171 758.724L930.838 666.921L840.241 664.657L837.922 744.5L801.51 755.559L804.175 663.756L776.3 663.059L789.873 639.946L804.857 640.32L808.231 524.111L844.643 513.053L840.921 641.221L931.518 643.485L934.892 527.277L971.304 516.218L964.583 747.665ZM1239.25 739.326C1237.42 742.407 1235.13 745.369 1232.37 748.211C1229.73 751.057 1226.69 753.569 1223.26 755.748C1219.94 757.821 1216.41 759.511 1212.65 760.82C1208.9 762.02 1205.05 762.571 1201.1 762.472C1194.59 762.309 1188.93 761.036 1184.12 758.651C1179.42 756.27 1175.45 753.15 1172.19 749.296C1169.05 745.335 1166.74 740.857 1165.26 735.86C1163.77 730.861 1163.11 725.616 1163.27 720.12L1165.09 657.571C1163.26 664.427 1161.19 671.815 1158.87 679.737C1156.55 687.55 1153.76 695.351 1150.51 703.143C1147.27 710.825 1143.51 718.225 1139.23 725.343C1134.96 732.461 1129.95 738.751 1124.21 744.215C1118.6 749.574 1112.2 753.834 1105.01 756.998C1097.83 760.054 1089.72 761.468 1080.65 761.241C1069.62 760.965 1059.8 758.78 1051.21 754.682C1042.61 750.585 1035.33 745.066 1029.37 738.125C1023.53 731.185 1019.11 723.042 1016.13 713.694C1013.27 704.242 1011.99 694.074 1012.31 683.191C1012.68 670.26 1015.27 657.386 1020.06 644.566C1024.85 631.638 1031.25 619.29 1039.27 607.522C1047.39 595.756 1056.89 584.886 1067.76 574.915C1078.74 564.945 1090.62 556.347 1103.38 549.117C1116.14 541.888 1129.5 536.346 1143.44 532.488C1157.5 528.634 1171.61 526.992 1185.78 527.562L1187.87 527.614L1187.65 534.887C1175.44 535.121 1163.64 537.307 1152.25 541.442C1140.85 545.471 1130.12 550.918 1120.04 557.783C1110.08 564.542 1100.9 572.454 1092.5 581.517C1084.1 590.58 1076.85 600.266 1070.73 610.573C1064.74 620.882 1059.95 631.545 1056.38 642.563C1052.92 653.582 1051.04 664.48 1050.72 675.254C1050.6 679.457 1050.76 683.99 1051.2 688.852C1051.64 693.608 1052.49 698.428 1053.74 703.312C1055 708.088 1056.67 712.712 1058.75 717.184C1060.83 721.55 1063.44 725.497 1066.6 729.027C1069.87 732.451 1073.68 735.242 1078.03 737.4C1082.39 739.449 1087.42 740.546 1093.11 740.687C1099.96 740.859 1106.23 739.075 1111.92 735.335C1117.61 731.596 1122.81 726.496 1127.53 720.036C1132.25 713.577 1136.48 706.027 1140.22 697.386C1144.07 688.748 1147.48 679.613 1150.43 669.983C1153.38 660.352 1155.88 650.548 1157.91 640.571C1160.06 630.488 1161.8 620.827 1163.11 611.586C1164.54 602.35 1165.6 593.804 1166.3 585.949C1167.11 577.99 1167.59 571.317 1167.75 565.93L1204.17 554.547L1199.18 726.355C1199.12 728.51 1199.29 730.671 1199.69 732.837C1200.09 735.004 1200.85 737.019 1201.96 738.879C1203.07 740.632 1204.48 742.069 1206.19 743.19C1208.02 744.314 1210.27 744.909 1212.94 744.976C1217 745.077 1220.87 744.042 1224.53 741.869C1228.2 739.696 1231.23 737.238 1233.64 734.496L1239.25 739.326ZM1460 744.842C1458.16 747.923 1455.87 750.885 1453.12 753.727C1450.47 756.573 1447.44 759.085 1444 761.264C1440.69 763.337 1437.15 765.029 1433.4 766.337C1429.63 767.537 1425.79 768.087 1421.84 767.989C1415.33 767.826 1409.68 766.553 1404.87 764.168C1400.17 761.786 1396.19 758.667 1392.93 754.812C1389.79 750.852 1387.49 746.373 1386 741.376C1384.51 736.379 1383.85 731.133 1384.02 725.637L1388.07 585.992C1388.15 583.407 1388.22 580.605 1388.31 577.588C1388.4 574.463 1388.31 571.388 1388.06 568.362C1387.91 565.34 1387.47 562.417 1386.75 559.595C1386.01 556.774 1384.86 554.319 1383.3 552.23C1381.73 550.035 1379.64 548.257 1377 546.897C1374.48 545.54 1371.24 544.812 1367.3 544.714C1360.68 544.548 1354.7 546.233 1349.37 549.765C1344.03 553.298 1339.25 557.977 1335.02 563.802C1330.89 569.521 1327.27 576.062 1324.16 583.425C1321.15 590.682 1318.62 598.005 1316.55 605.393C1314.58 612.785 1313.1 619.865 1312.09 626.632C1311.08 633.4 1310.51 639.1 1310.38 643.734L1307.12 755.579L1270.7 766.962L1277.43 535.513L1313.83 524.454L1312.08 585.388C1314.62 577.58 1317.92 570.114 1321.96 562.991C1326.12 555.762 1331.07 549.416 1336.82 543.952C1342.66 538.491 1349.41 534.239 1357.06 531.195C1364.82 528.047 1373.64 526.595 1383.52 526.842C1390.94 527.028 1397.29 528.48 1402.57 531.2C1407.83 533.812 1412.08 537.315 1415.33 541.71C1418.69 546.107 1421.1 551.18 1422.56 556.932C1424.02 562.684 1424.67 568.684 1424.49 574.933L1419.92 731.872C1419.86 734.026 1420.03 736.188 1420.44 738.354C1420.96 740.524 1421.71 742.537 1422.7 744.396C1423.81 746.149 1425.28 747.587 1427.11 748.711C1428.94 749.835 1431.24 750.432 1434.03 750.501C1437.98 750.6 1441.73 749.562 1445.28 747.386C1448.94 745.213 1451.98 742.755 1454.39 740.012L1460 744.842Z" fill="#505050"/>
<defs>
<linearGradient id="paint0_linear_12_2" x1="700" y1="0" x2="700" y2="1357" gradientUnits="userSpaceOnUse">
<stop stop-color="#99B6FF"/>
<stop offset="1" stop-color="#F30F38" stop-opacity="0"/>
</linearGradient>
</defs>
</svg>
