<svg width="1398" height="1046" viewBox="0 0 1398 1046" fill="none" xmlns="http://www.w3.org/2000/svg">
<path fill-rule="evenodd" clip-rule="evenodd" d="M846.273 139.82C901.994 131.699 949.63 185.437 979.153 233.423C1003.33 272.71 984.879 320.276 985.682 366.406C986.513 414.119 1011.87 465.481 983.867 504.107C953.748 545.657 897.127 565.416 846.273 558.719C799.362 552.541 768.697 510.24 740.68 472.081C717.816 440.939 703.85 405.031 705.074 366.406C706.258 329.086 727.431 298.914 747.175 267.231C776.758 219.757 790.951 147.882 846.273 139.82Z" fill="#C4C4C4"/>
<path fill-rule="evenodd" clip-rule="evenodd" d="M330.62 55.6309C412.908 53.2363 510.908 -38.6255 569.786 18.9172C634.357 82.0249 523.559 203.81 564.552 284.259C608.893 371.281 781.158 360.73 793.334 457.638C804.111 543.411 681.543 585.903 608.199 631.65C550.865 667.412 481.039 665.083 418.752 691.281C345.382 722.14 290.344 804.221 210.939 798.738C130.495 793.183 53.848 734.857 16.3006 663.489C-19.7762 594.917 14.492 513.062 19.9778 435.771C24.2395 375.726 33.1438 319.642 44.8955 260.604C60.4804 182.309 35.3724 79.1118 100.235 32.5809C164.244 -13.3381 251.879 57.9222 330.62 55.6309Z" fill="#3A3A3A"/>
<path fill-rule="evenodd" clip-rule="evenodd" d="M1099.24 480.641C1149.78 483.387 1196.18 501.558 1241.61 523.903C1288.56 546.998 1344.81 565.247 1367.34 612.508C1389.7 659.421 1359.12 712.978 1356.46 764.883C1353.75 817.622 1392.07 886.187 1351.57 920.021C1307.22 957.066 1239.56 905.249 1182.04 910.581C1145.5 913.968 1116.56 946.108 1079.88 945.206C1039.44 944.211 1004.16 923.197 967.868 905.314C915.678 879.595 833.298 874.555 821.025 817.643C808.704 760.51 898.139 731.027 918.469 676.239C938.57 622.067 896.975 549.73 936.179 507.31C974.35 466.01 1043.11 477.591 1099.24 480.641Z" fill="#343434"/>
<path fill-rule="evenodd" clip-rule="evenodd" d="M546.525 715.51C582.84 713.81 611 668.292 646.263 677.14C680.31 685.682 698.674 724.34 711.706 756.955C724.38 788.671 726.159 823.93 718.188 857.143C710.642 888.587 684.503 910.045 668.256 937.999C647.321 974.019 649.633 1036.34 608.93 1045.12C566.965 1054.18 544.556 990.411 505.229 973.186C473.361 959.229 425.479 983.363 404.508 955.59C383.114 927.257 414.335 887.095 413.418 851.595C412.65 821.869 392.735 794.229 399.591 765.294C407.062 733.767 421.942 696.598 452.61 686.206C484.312 675.465 513.092 717.076 546.525 715.51Z" fill="#C4C4C4"/>
<path d="M197.261 411.125C189.32 422.325 181.8 432.908 174.701 442.872C167.694 452.75 160.829 462.361 154.106 471.707C147.473 481.055 140.888 490.27 134.352 499.351C127.816 508.432 121.097 517.644 114.195 526.984C107.385 536.238 100.295 545.844 92.9267 555.801C85.6504 565.671 77.8196 576.111 69.4342 587.119C72.3638 585.131 75.155 583.274 77.8079 581.548C80.5507 579.824 83.2873 578.325 86.018 577.051C88.8384 575.778 91.7851 574.824 94.858 574.188C97.9334 573.462 101.357 573.15 105.129 573.251C109.44 573.367 113.74 573.888 118.029 574.812C122.411 575.649 126.745 576.575 131.032 577.589C135.321 578.513 139.61 579.438 143.899 580.362C148.28 581.199 152.671 581.677 157.072 581.796C160.126 581.878 163.103 581.464 166.003 580.553C168.994 579.645 171.813 578.418 174.461 576.872C177.199 575.328 179.718 573.553 182.019 571.548C184.323 569.453 186.449 567.263 188.398 564.979L193.018 568.609L165.169 611.538C153.1 609.146 141.163 606.847 129.359 604.642C117.647 602.349 105.843 600.144 93.9462 598.026C91.6232 597.514 89.3415 597.138 87.1011 596.897C84.8631 596.568 82.5765 596.371 80.2414 596.308C75.212 596.173 70.3889 596.717 65.7723 597.941C61.2479 599.077 56.8813 601.027 52.6725 603.789L48.6161 599.231C68.5712 572.446 87.9765 546.051 106.832 520.045C125.69 493.95 144.601 467.542 163.566 440.82L134.602 440.04C131.189 439.948 126.833 439.83 121.535 439.688C116.328 439.457 110.893 439.356 105.23 439.383C99.6571 439.413 94.3024 439.673 89.1663 440.164C84.0325 440.565 79.8309 441.395 76.5614 442.655C74.8356 443.328 73.0601 444.179 71.2349 445.208C69.4096 446.237 67.6705 447.404 66.0176 448.708C64.3647 450.011 62.7992 451.407 61.3211 452.895C59.8454 454.293 58.5494 455.696 57.4329 457.104L52.5464 453.333L80.8003 410.414L152.2 412.337C155.703 412.432 159.204 412.571 162.704 412.755C166.294 412.942 169.846 412.903 173.358 412.638C176.87 412.373 180.301 411.791 183.651 410.893C187.001 409.994 190.185 408.552 193.204 406.567L197.261 411.125ZM342.549 557.807C338.401 564.975 333.41 571.761 327.576 578.165C321.831 584.571 315.433 590.196 308.382 595.039C301.421 599.885 293.904 603.682 285.831 606.43C277.847 609.181 269.5 610.439 260.788 610.204C254.052 610.023 247.526 608.724 241.21 606.307C234.894 603.89 229.277 600.548 224.359 596.281C219.531 592.017 215.667 586.969 212.768 581.139C209.962 575.222 208.654 568.715 208.845 561.62C209.032 554.705 210.597 548.321 213.54 542.468C216.487 536.526 220.227 531.144 224.76 526.323C229.384 521.504 234.532 517.239 240.204 513.527C245.967 509.818 251.758 506.693 257.578 504.154C253.556 503.326 249.959 501.747 246.786 499.414C243.613 497.082 240.947 494.314 238.786 491.11C236.626 487.906 235.013 484.357 233.95 480.464C232.886 476.571 232.408 472.648 232.514 468.696C232.662 463.218 233.789 458.08 235.895 453.284C238.004 448.397 240.776 443.933 244.21 439.892C247.737 435.762 251.79 432.097 256.37 428.895C260.953 425.603 265.745 422.856 270.748 420.654C275.84 418.454 281.008 416.796 286.251 415.679C291.583 414.564 296.72 414.074 301.659 414.207C309.024 414.405 315.72 416.068 321.747 419.197C327.777 422.235 333.052 426.601 337.572 432.296L317.653 446.049C315.837 443.394 313.837 440.913 311.652 438.608C309.56 436.215 307.233 434.175 304.672 432.488C302.203 430.714 299.5 429.293 296.563 428.225C293.716 427.16 290.63 426.582 287.307 426.493C283.176 426.381 279.069 427.035 274.987 428.453C270.996 429.783 267.393 431.753 264.177 434.363C260.963 436.883 258.319 439.957 256.244 443.586C254.259 447.218 253.207 451.234 253.088 455.634C252.965 460.215 253.838 464.507 255.707 468.512C257.579 472.427 260.093 475.866 263.249 478.827C266.405 481.788 270.026 484.132 274.114 485.86C278.292 487.59 282.581 488.515 286.982 488.633C292.011 488.769 296.703 488.086 301.057 486.586L302.929 492.164C295.592 494.303 288.236 497.116 280.862 500.602C273.58 504.001 266.997 508.182 261.111 513.147C255.225 518.111 250.395 523.913 246.621 530.552C242.937 537.193 240.98 544.78 240.75 553.312C240.617 558.252 241.212 562.852 242.536 567.111C243.859 571.371 245.825 575.109 248.435 578.325C251.135 581.544 254.436 584.104 258.339 586.007C262.332 587.912 266.844 588.932 271.873 589.068C277.082 589.208 282.948 588.332 289.47 586.441C295.994 584.46 302.402 581.801 308.693 578.465C314.985 575.13 320.751 571.286 325.991 566.933C331.231 562.58 335.216 558.104 337.947 553.504L342.549 557.807ZM489.66 561.77C485.512 568.938 480.521 575.724 474.686 582.128C468.941 588.534 462.543 594.159 455.492 599.002C448.531 603.848 441.014 607.645 432.941 610.393C424.958 613.144 416.611 614.402 407.899 614.167C401.163 613.986 394.637 612.687 388.321 610.27C382.005 607.853 376.388 604.511 371.47 600.244C366.641 595.98 362.778 590.932 359.879 585.102C357.072 579.185 355.765 572.678 355.956 565.583C356.142 558.668 357.707 552.284 360.651 546.431C363.597 540.489 367.337 535.107 371.871 530.286C376.495 525.467 381.643 521.202 387.315 517.49C393.077 513.781 398.869 510.656 404.689 508.117C400.667 507.289 397.069 505.71 393.897 503.377C390.724 501.045 388.057 498.277 385.897 495.073C383.736 491.869 382.124 488.32 381.061 484.427C379.997 480.534 379.519 476.611 379.625 472.659C379.773 467.181 380.9 462.043 383.006 457.247C385.115 452.36 387.887 447.896 391.321 443.855C394.848 439.725 398.901 436.06 403.481 432.858C408.063 429.566 412.856 426.819 417.858 424.617C422.951 422.417 428.118 420.759 433.361 419.642C438.694 418.527 443.83 418.037 448.77 418.17C456.134 418.368 462.83 420.031 468.858 423.16C474.887 426.198 480.162 430.564 484.682 436.259L464.764 450.012C462.948 447.357 460.948 444.876 458.763 442.571C456.67 440.177 454.344 438.138 451.783 436.451C449.314 434.677 446.611 433.256 443.674 432.188C440.826 431.123 437.741 430.545 434.418 430.456C430.287 430.344 426.18 430.998 422.097 432.416C418.107 433.746 414.504 435.716 411.288 438.326C408.074 440.846 405.43 443.92 403.355 447.549C401.37 451.181 400.318 455.197 400.199 459.597C400.076 464.178 400.949 468.47 402.818 472.475C404.69 476.39 407.204 479.829 410.359 482.79C413.515 485.751 417.137 488.095 421.225 489.823C425.402 491.553 429.692 492.478 434.092 492.596C439.122 492.732 443.814 492.049 448.168 490.549L450.04 496.127C442.703 498.266 435.347 501.078 427.973 504.565C420.691 507.964 414.107 512.145 408.222 517.11C402.336 522.074 397.506 527.876 393.732 534.515C390.048 541.156 388.091 548.743 387.861 557.275C387.728 562.215 388.323 566.815 389.646 571.074C390.97 575.334 392.936 579.072 395.546 582.288C398.245 585.506 401.547 588.067 405.45 589.97C409.443 591.875 413.954 592.895 418.984 593.031C424.193 593.171 430.058 592.295 436.58 590.404C443.105 588.423 449.513 585.764 455.804 582.428C462.095 579.093 467.861 575.249 473.101 570.896C478.342 566.543 482.327 562.067 485.057 557.467L489.66 561.77ZM640.088 452.578L616.719 479.316C614.903 473.335 612.496 467.608 609.498 462.135C606.499 456.662 602.899 451.846 598.697 447.688C594.495 443.531 589.688 440.166 584.274 437.593C578.861 435.021 572.787 433.644 566.051 433.462C561.201 433.332 556.686 434.109 552.507 435.794C548.329 437.389 544.627 439.716 541.399 442.775C538.263 445.746 535.74 449.318 533.83 453.491C532.01 457.666 531.034 462.178 530.904 467.028C530.768 472.057 531.584 476.798 533.352 481.25C535.119 485.701 537.526 489.765 540.573 493.443C543.622 497.03 547.132 500.18 551.104 502.894C555.165 505.609 559.376 507.745 563.738 509.301C568.098 510.946 572.677 512.777 577.476 514.794C582.275 516.81 586.976 519.139 591.578 521.779C596.181 524.42 600.55 527.369 604.687 530.626C608.826 533.793 612.46 537.351 615.589 541.3C618.718 545.249 621.161 549.629 622.919 554.44C624.679 559.161 625.485 564.306 625.335 569.874C625.117 577.957 623.125 585.183 619.358 591.553C615.684 597.835 610.913 603.099 605.047 607.345C599.18 611.591 592.488 614.781 584.971 616.915C577.544 619.052 570.013 620.018 562.379 619.812C557.17 619.672 551.892 618.765 546.544 617.094C541.286 615.424 536.223 613.22 531.353 610.483C526.576 607.658 522.079 604.436 517.863 600.817C513.736 597.201 510.155 593.33 507.121 589.203L529.62 564.734C530.851 569.081 533.063 573.725 536.255 578.664C539.537 583.606 543.368 588.203 547.747 592.455C552.126 596.707 556.838 600.294 561.882 603.216C567.019 606.051 572.012 607.534 576.862 607.664C579.646 607.739 582.539 607.098 585.542 605.741C588.544 604.384 591.288 602.615 593.774 600.435C596.351 598.168 598.485 595.709 600.174 593.058C601.863 590.408 602.743 587.78 602.813 585.175C602.919 581.224 602.211 577.475 600.689 573.929C599.169 570.293 597.105 566.867 594.495 563.651C591.975 560.437 588.999 557.481 585.566 554.782C582.226 551.996 578.698 549.519 574.981 547.352C571.357 545.097 567.68 543.155 563.949 541.527C560.31 539.811 556.931 538.462 553.812 537.479C547.666 535.426 541.676 532.568 535.843 528.906C530.099 525.246 525.004 520.885 520.557 515.822C516.11 510.759 512.576 505.136 509.956 498.954C507.339 492.682 506.125 486.043 506.314 479.038C506.476 473.021 507.572 467.343 509.604 462.005C511.635 456.668 514.374 451.753 517.82 447.262C521.266 442.771 525.285 438.745 529.874 435.184C534.466 431.533 539.401 428.52 544.678 426.146C549.957 423.682 555.444 421.852 561.138 420.657C566.835 419.373 572.557 418.808 578.305 418.963C590.879 419.302 602.478 422.445 613.103 428.394C623.73 434.252 632.725 442.314 640.088 452.578ZM794.466 617.166L766.311 626.384L768.373 549.865L698.32 547.978L696.527 614.528L668.372 623.746L670.433 547.227L648.879 546.646L659.374 527.381L670.96 527.693L673.569 430.831L701.724 421.614L698.846 528.444L768.899 530.331L771.508 433.47L799.663 424.252L794.466 617.166ZM1006.85 610.215C1005.43 612.783 1003.66 615.252 1001.53 617.621C999.488 619.993 997.14 622.087 994.484 623.903C991.921 625.631 989.187 627.04 986.281 628.131C983.378 629.131 980.4 629.59 977.347 629.508C972.317 629.372 967.942 628.311 964.221 626.323C960.589 624.338 957.513 621.738 954.994 618.525C952.566 615.224 950.779 611.491 949.633 607.326C948.487 603.16 947.976 598.788 948.099 594.207L949.504 542.072C948.091 547.786 946.487 553.944 944.692 560.547C942.899 567.059 940.746 573.562 938.234 580.056C935.725 586.459 932.818 592.627 929.512 598.56C926.207 604.493 922.336 609.736 917.899 614.29C913.554 618.757 908.605 622.308 903.052 624.945C897.501 627.492 891.223 628.671 884.217 628.482C875.685 628.252 868.095 626.43 861.446 623.015C854.797 619.6 849.169 615 844.562 609.214C840.044 603.43 836.632 596.642 834.325 588.851C832.111 580.972 831.126 572.497 831.37 563.426C831.66 552.648 833.657 541.917 837.36 531.232C841.066 520.456 846.017 510.164 852.213 500.355C858.499 490.548 865.843 481.488 874.246 473.177C882.738 464.867 891.919 457.7 901.788 451.674C911.657 445.649 921.982 441.029 932.764 437.814C943.636 434.601 954.548 433.233 965.5 433.708L967.116 433.751L966.953 439.813C957.511 440.008 948.384 441.83 939.573 445.277C930.765 448.635 922.464 453.175 914.67 458.897C906.969 464.531 899.871 471.126 893.376 478.68C886.881 486.234 881.271 494.307 876.546 502.898C871.91 511.491 868.211 520.379 865.447 529.562C862.773 538.747 861.315 547.83 861.073 556.811C860.978 560.314 861.101 564.092 861.441 568.145C861.784 572.109 862.44 576.126 863.409 580.197C864.38 584.178 865.669 588.032 867.276 591.76C868.886 595.399 870.909 598.689 873.347 601.631C875.876 604.485 878.824 606.811 882.191 608.61C885.561 610.318 889.446 611.232 893.846 611.35C899.145 611.493 903.994 610.006 908.392 606.889C912.79 603.772 916.814 599.521 920.464 594.137C924.114 588.753 927.384 582.46 930.275 575.258C933.255 568.058 935.887 560.444 938.17 552.417C940.453 544.39 942.381 536.218 943.953 527.902C945.618 519.498 946.958 511.445 947.975 503.743C949.081 496.044 949.902 488.921 950.438 482.374C951.066 475.74 951.44 470.178 951.561 465.688L979.723 456.2L975.866 599.404C975.817 601.2 975.949 603.001 976.259 604.807C976.57 606.613 977.154 608.292 978.011 609.843C978.871 611.304 979.962 612.502 981.285 613.436C982.697 614.373 984.437 614.869 986.502 614.925C989.646 615.009 992.635 614.146 995.47 612.335C998.305 610.524 1000.65 608.475 1002.51 606.189L1006.85 610.215ZM1177.54 614.813C1176.12 617.381 1174.35 619.85 1172.22 622.219C1170.17 624.591 1167.83 626.685 1165.17 628.501C1162.61 630.229 1159.87 631.639 1156.97 632.729C1154.06 633.729 1151.09 634.188 1148.03 634.106C1143 633.97 1138.63 632.909 1134.91 630.921C1131.28 628.936 1128.2 626.336 1125.68 623.123C1123.25 619.822 1121.47 616.089 1120.32 611.924C1119.17 607.759 1118.66 603.386 1118.79 598.805L1121.92 482.41C1121.98 480.255 1122.04 477.92 1122.11 475.405C1122.18 472.8 1122.11 470.237 1121.91 467.715C1121.8 465.196 1121.46 462.76 1120.9 460.408C1120.33 458.056 1119.44 456.01 1118.23 454.269C1117.02 452.439 1115.4 450.957 1113.36 449.824C1111.41 448.693 1108.91 448.086 1105.86 448.004C1100.74 447.866 1096.12 449.27 1092 452.214C1087.87 455.159 1084.17 459.059 1080.9 463.914C1077.71 468.681 1074.91 474.133 1072.5 480.27C1070.18 486.319 1068.22 492.423 1066.62 498.581C1065.1 504.742 1063.95 510.643 1063.17 516.284C1062.39 521.925 1061.95 526.676 1061.85 530.538L1059.33 623.762L1031.17 633.25L1036.37 440.335L1064.52 431.117L1063.16 481.906C1065.13 475.398 1067.68 469.175 1070.8 463.238C1074.02 457.213 1077.85 451.923 1082.29 447.369C1086.81 442.817 1092.03 439.273 1097.94 436.736C1103.94 434.112 1110.76 432.902 1118.4 433.108C1124.14 433.263 1129.05 434.473 1133.13 436.74C1137.2 438.917 1140.49 441.837 1143 445.5C1145.6 449.165 1147.46 453.394 1148.59 458.188C1149.72 462.982 1150.22 467.983 1150.08 473.192L1146.55 604.002C1146.5 605.798 1146.63 607.6 1146.95 609.405C1147.35 611.214 1147.93 612.892 1148.7 614.441C1149.56 615.902 1150.69 617.101 1152.11 618.038C1153.52 618.975 1155.3 619.472 1157.46 619.53C1160.51 619.612 1163.41 618.747 1166.16 616.933C1168.99 615.122 1171.34 613.073 1173.2 610.787L1177.54 614.813Z" fill="white"/>
</svg>
